HIERARCHY
ROOT Hips
{
	OFFSET 0.00000 0.00000 0.00000
	CHANNELS 6 Xposition Yposition Zposition Zrotation Yrotation Xrotation 
	JOINT LHipJoint
	{
		OFFSET 0 0 0
		CHANNELS 3 Zrotation Yrotation Xrotation
		JOINT LeftUpLeg
		{
			OFFSET 1.38691 -1.89057 0.78360
			CHANNELS 3 Zrotation Yrotation Xrotation
			JOINT LeftLeg
			{
				OFFSET 2.59731 -7.13606 0.00000
				CHANNELS 3 Zrotation Yrotation Xrotation
				JOINT LeftFoot
				{
					OFFSET 2.70078 -7.42033 0.00000
					CHANNELS 3 Zrotation Yrotation Xrotation
					JOINT LeftToeBase
					{
						OFFSET 0.16751 -0.46024 2.68862
						CHANNELS 3 Zrotation Yrotation Xrotation
						End Site
						{
							OFFSET 0.00000 -0.00000 1.37057
						}
					}
				}
			}
		}
	}
	JOINT RHipJoint
	{
		OFFSET 0 0 0
		CHANNELS 3 Zrotation Yrotation Xrotation
		JOINT RightUpLeg
		{
			OFFSET -1.38190 -1.89056 0.78359
			CHANNELS 3 Zrotation Yrotation Xrotation
			JOINT RightLeg
			{
				OFFSET -2.57785 -7.08258 0.00000
				CHANNELS 3 Zrotation Yrotation Xrotation
				JOINT RightFoot
				{
					OFFSET -2.77908 -7.63547 0.00000
					CHANNELS 3 Zrotation Yrotation Xrotation
					JOINT RightToeBase
					{
						OFFSET -0.17921 -0.49237 2.62360
						CHANNELS 3 Zrotation Yrotation Xrotation
						End Site
						{
							OFFSET -0.00000 -0.00000 1.34085
						}
					}
				}
			}
		}
	}
	JOINT LowerBack
	{
		OFFSET 0 0 0
		CHANNELS 3 Zrotation Yrotation Xrotation
		JOINT Spine
		{
			OFFSET -0.10749 2.04110 -0.22549
			CHANNELS 3 Zrotation Yrotation Xrotation
			JOINT Spine1
			{
				OFFSET 0.01213 2.05840 0.00691
				CHANNELS 3 Zrotation Yrotation Xrotation
				JOINT Neck
				{
					OFFSET 0 0 0
					CHANNELS 3 Zrotation Yrotation Xrotation
					JOINT Neck1
					{
						OFFSET 0.06585 1.81215 0.35449
						CHANNELS 3 Zrotation Yrotation Xrotation
						JOINT Head
						{
							OFFSET -0.04315 1.87555 -0.27307
							CHANNELS 3 Zrotation Yrotation Xrotation
							End Site
							{
								OFFSET -0.01775 1.89740 -0.13294
							}
						}
					}
				}
				JOINT LeftShoulder
				{
					OFFSET 0 0 0
					CHANNELS 3 Zrotation Yrotation Xrotation
					JOINT LeftArm
					{
						OFFSET 2.98012 1.63606 0.28888
						CHANNELS 3 Zrotation Yrotation Xrotation
						JOINT LeftForeArm
						{
							OFFSET 5.59864 -0.00000 -0.00000
							CHANNELS 3 Zrotation Yrotation Xrotation
							JOINT LeftHand
							{
								OFFSET 3.59542 -0.00000 -0.00000
								CHANNELS 3 Zrotation Yrotation Xrotation
								JOINT LeftFingerBase
								{
									OFFSET 0 0 0
									CHANNELS 3 Zrotation Yrotation Xrotation
									JOINT LeftHandIndex1
									{
										OFFSET 0.57201 -0.00000 -0.00000
										CHANNELS 3 Zrotation Yrotation Xrotation
										End Site
										{
											OFFSET 0.46117 -0.00000 -0.00000
										}
									}
								}
								JOINT LThumb
								{
									OFFSET 0 0 0
									CHANNELS 3 Zrotation Yrotation Xrotation
									End Site
									{
										OFFSET 0.46821 -0.00000 0.46821
									}
								}
							}
						}
					}
				}
				JOINT RightShoulder
				{
					OFFSET 0 0 0
					CHANNELS 3 Zrotation Yrotation Xrotation
					JOINT RightArm
					{
						OFFSET -3.08694 1.53706 0.36335
						CHANNELS 3 Zrotation Yrotation Xrotation
						JOINT RightForeArm
						{
							OFFSET -5.80940 -0.00000 -0.00000
							CHANNELS 3 Zrotation Yrotation Xrotation
							JOINT RightHand
							{
								OFFSET -3.66953 -0.00000 -0.00000
								CHANNELS 3 Zrotation Yrotation Xrotation
								JOINT RightFingerBase
								{
									OFFSET 0 0 0
									CHANNELS 3 Zrotation Yrotation Xrotation
									JOINT RightHandIndex1
									{
										OFFSET -0.57843 -0.00000 -0.00000
										CHANNELS 3 Zrotation Yrotation Xrotation
										End Site
										{
											OFFSET -0.46635 -0.00000 -0.00000
										}
									}
								}
								JOINT RThumb
								{
									OFFSET 0 0 0
									CHANNELS 3 Zrotation Yrotation Xrotation
									End Site
									{
										OFFSET -0.47347 -0.00000 0.47347
									}
								}
							}
						}
					}
				}
			}
		}
	}
}
MOTION
Frames: 11
Frame Time: .0083333
0.8611 19.0231 -38.2064 0 0 0 0 0 0 -21 0 0 0 0 0 0 0 0 0 0 0 0 0 0 21 0 0 0 0 0 0 0 0 0 0 0 0 0 0 0 0 0 0 0 0 0 0 -16 0 0 21 0 0 11 0 0 0 -8 0 0 0 0 0 0 0 0 0 0 0 0 0 0 0 0 0 0 0 0 8 0 0 0 0 0 0 0 0 0 0 0 0 0 0 0 0 0
0.8611 19.0231 -38.2064 3.0980 72.4370 8.2063 0.0000 0.0000 0.0000 -11.9271 -10.7722 -10.1263 3.5774 11.5758 34.2474 0.2182 -28.2218 -21.2133 0.4455 4.2827 11.8733 0.0000 0.0000 0.0000 23.5870 -1.7790 -28.7323 -6.7362 -15.1057 47.8695 -6.4097 8.0324 -46.9708 -0.5037 4.5497 -12.6287 -2.3371 -2.2253 12.0693 0.3798 -3.2587 -0.6350 2.3060 -1.4854 -7.2967 0.0298 -6.1205 -17.0933 2.7833 -9.6165 40.2181 -0.5068 -3.0843 18.0252 0.0000 0.0000 0.0000 -78.4355 -10.0495 56.2290 48.1447 -52.2193 -24.7000 -0.0000 0.0000 -31.3183 36.2350 12.2958 8.8702 -7.1250 0.0000 -0.0000 8.4031 44.9345 -0.0137 0.0000 0.0000 0.0000 73.3775 8.4732 34.6710 -24.5150 35.7042 -8.0052 0.0000 -0.0000 -12.1484 -44.8521 0.6569 -0.6535 7.1250 -0.0000 -0.0000 -14.1683 -28.9170 -5.7110
0.8894 19.0493 -37.8434 2.5326 73.1945 7.8109 0.0000 0.0000 0.0000 -11.8276 -11.4186 -9.7564 3.4403 11.3758 33.5579 0.2508 -27.4656 -20.8902 0.4793 4.4399 12.3178 0.0000 0.0000 0.0000 23.6848 -2.2930 -28.6973 -6.5908 -14.9774 47.3093 -6.4093 7.8745 -46.9867 -0.5116 4.5846 -12.7275 -1.8757 -2.4517 10.9977 0.1469 -3.4763 -0.0890 1.7647 -1.6386 -6.1404 0.0918 -6.0386 -18.4252 3.0038 -9.6956 40.3031 -0.4856 -3.0447 18.4529 0.0000 0.0000 0.0000 -77.6332 -10.5205 55.5264 47.3292 -51.8598 -24.0571 -0.0000 0.0000 -32.2242 36.0969 12.7711 9.1561 -7.1250 0.0000 -0.0000 8.2833 45.4850 0.0999 0.0000 0.0000 0.0000 74.1840 9.4892 34.8742 -24.4618 35.6488 -7.9741 0.0000 -0.0000 -12.0349 -44.8744 0.4795 -0.4774 7.1250 -0.0000 -0.0000 -14.2205 -29.1590 -5.6487
0.9159 19.0763 -37.4785 2.2456 73.7977 7.6762 0.0000 0.0000 0.0000 -11.8388 -11.9026 -9.4421 3.3351 11.2186 33.0208 0.4448 -27.4055 -21.9508 0.4472 4.2905 11.8953 0.0000 0.0000 0.0000 23.6665 -2.2975 -28.4931 -6.4678 -14.8668 46.8313 -6.4802 7.8168 -47.2733 -0.5021 4.5425 -12.6081 -1.9630 -2.5279 10.5990 0.2001 -3.5809 -0.1761 1.8669 -1.6901 -5.9950 -0.0515 -6.0333 -18.7494 2.9361 -9.6239 40.4872 -0.4901 -3.0295 18.6529 -0.0000 0.0000 0.0000 -77.5148 -9.9348 55.0436 46.5604 -51.5104 -23.4538 -0.0000 0.0000 -32.8941 35.9061 13.3344 9.4803 -7.1250 0.0000 -0.0000 8.1099 46.1305 0.2278 -0.0000 0.0000 0.0000 74.5057 9.3670 35.2363 -24.5734 35.7647 -8.0392 0.0000 -0.0000 -11.9978 -44.8705 0.2281 -0.2270 7.1250 -0.0000 -0.0000 -14.2677 -29.5029 -5.5478
0.9420 19.0969 -37.1179 1.9018 74.2526 7.4533 0.0000 0.0000 0.0000 -11.8730 -12.1755 -9.0890 3.2328 11.0627 32.4917 0.5155 -27.6673 -22.5068 0.3647 3.8795 10.7378 0.0000 0.0000 0.0000 23.6419 -2.6365 -28.3966 -6.3490 -14.7582 46.3666 -6.3979 8.2666 -46.8989 -0.4458 4.2839 -11.8767 -2.0073 -2.5886 10.1681 0.2070 -3.6657 -0.4214 1.8963 -1.7307 -6.0043 -0.1229 -6.0097 -18.2952 2.8696 -9.4960 40.5070 -0.4636 -3.0052 18.5361 0.0000 -0.0000 0.0000 -77.3269 -8.8458 54.5855 45.9894 -51.2441 -23.0078 -0.0000 0.0000 -33.6264 35.7391 13.6542 9.6409 -7.1250 0.0000 -0.0000 7.9517 46.4860 0.2934 0.0000 -0.0000 0.0000 74.9262 8.8832 35.7447 -24.6653 35.8599 -8.0930 0.0000 -0.0000 -11.8619 -44.8999 0.0601 -0.0599 7.1250 -0.0000 -0.0000 -14.3240 -29.7320 -5.4901
0.9671 19.1183 -36.7695 1.3364 74.2775 6.8716 0.0000 0.0000 0.0000 -12.0011 -12.3998 -8.5965 3.1413 10.9204 32.0118 0.7335 -27.2124 -23.4230 0.3239 3.6583 10.1173 0.0000 0.0000 0.0000 23.6119 -2.7573 -28.0870 -6.2414 -14.6583 45.9430 -6.3544 8.5051 -46.7016 -0.4131 4.1256 -11.4304 -2.0562 -2.5513 9.9079 0.2663 -3.6192 -0.6436 1.9723 -1.7038 -6.0872 -0.2932 -6.0040 -17.7036 2.8264 -9.3621 40.4698 -0.4033 -2.9965 18.3575 0.0000 -0.0000 0.0000 -77.3898 -7.7097 53.9180 45.2069 -50.8694 -22.3991 -0.0000 0.0000 -33.7654 35.5885 13.8826 9.7428 -7.1250 0.0000 -0.0000 7.8064 46.7341 0.3361 0.0000 -0.0000 0.0000 75.3735 8.4501 35.8550 -24.5997 35.7920 -8.0546 0.0000 -0.0000 -11.5726 -44.5706 0.3673 -0.3618 7.1250 -0.0000 -0.0000 -14.0109 -29.3203 -5.5051
0.9924 19.1399 -36.4157 0.8752 74.4740 6.4480 0.0000 0.0000 0.0000 -12.0885 -12.6867 -8.1960 3.0592 10.7903 31.5759 0.8835 -26.9574 -24.0856 0.2914 3.4715 9.5943 0.0000 0.0000 0.0000 23.5762 -2.8913 -27.8553 -6.1385 -14.5613 45.5352 -6.3122 8.7001 -46.5142 -0.3842 3.9806 -11.0221 -2.0960 -2.5588 9.5393 0.2811 -3.6288 -0.7690 1.9953 -1.7088 -6.0072 -0.4144 -5.9874 -17.4611 2.8105 -9.2658 40.4804 -0.3604 -2.9817 18.3026 0.0000 0.0000 0.0000 -77.2942 -6.8296 53.2780 44.4826 -50.5125 -21.8387 -0.0000 0.0000 -34.1729 35.4323 14.2394 9.9270 -7.1250 0.0000 -0.0000 7.6541 47.1328 0.4051 0.0000 0.0000 0.0000 75.8378 8.1979 36.1209 -24.6022 35.7946 -8.0561 0.0000 -0.0000 -11.4455 -44.4437 0.3638 -0.3568 7.1250 -0.0000 -0.0000 -13.9147 -29.3283 -5.4625
1.0171 19.1614 -36.0646 0.4334 74.5458 6.0144 0.0000 0.0000 0.0000 -12.2101 -12.9169 -7.7767 2.9813 10.6647 31.1573 1.0445 -26.6360 -24.7683 0.2626 3.2966 9.1057 0.0000 0.0000 0.0000 23.5204 -2.9610 -27.5860 -6.0404 -14.4674 45.1437 -6.2585 8.8826 -46.2822 -0.3554 3.8298 -10.5983 -2.1630 -2.5376 9.2402 0.2995 -3.6046 -0.9266 2.0376 -1.6945 -6.0000 -0.5468 -5.9729 -17.1126 2.7981 -9.1649 40.4765 -0.3092 -2.9689 18.2115 0.0000 -0.0000 0.0000 -77.2465 -5.8618 52.5969 43.7579 -50.1452 -21.2809 -0.0000 0.0000 -34.5414 35.2905 14.6012 10.1166 -7.1250 0.0000 -0.0000 7.5129 47.5381 0.4730 0.0000 -0.0000 0.0000 76.3129 7.8801 36.3665 -24.5910 35.7830 -8.0495 0.0000 -0.0000 -11.3399 -44.3140 0.3706 -0.3618 7.1250 -0.0000 -0.0000 -13.8141 -29.3224 -5.4228
1.0412 19.1830 -35.7161 -0.0058 74.5059 5.5573 0.0000 0.0000 0.0000 -12.3427 -13.0343 -7.3656 2.9089 10.5461 30.7638 1.1997 -26.2115 -25.3680 0.2362 3.1277 8.6345 0.0000 0.0000 0.0000 23.4557 -2.9800 -27.2840 -5.9444 -14.3742 44.7580 -6.1949 9.0119 -46.0154 -0.3300 3.6921 -10.2120 -2.2275 -2.4973 8.9757 0.3097 -3.5551 -1.0768 2.0682 -1.6675 -6.0064 -0.6855 -5.9529 -16.7366 2.8073 -9.0628 40.4564 -0.2459 -2.9546 18.1062 0.0000 0.0000 0.0000 -77.2184 -4.8783 51.8538 43.0222 -49.7619 -20.7177 -0.0000 0.0000 -34.9140 35.1577 14.9771 10.3160 -7.1250 0.0000 -0.0000 7.3775 47.9602 0.5416 0.0000 0.0000 0.0000 76.8191 7.5686 36.5898 -24.5585 35.7493 -8.0305 0.0000 -0.0000 -11.2582 -44.1877 0.3759 -0.3653 7.1250 -0.0000 -0.0000 -13.7165 -29.3185 -5.3838
1.0645 19.2048 -35.3699 -0.4224 74.3773 5.1022 0.0000 0.0000 0.0000 -12.4819 -13.0542 -6.9883 2.8474 10.4438 30.4261 1.3528 -25.6897 -25.9158 0.2123 2.9662 8.1846 0.0000 0.0000 0.0000 23.3820 -2.9516 -26.9604 -5.8523 -14.2837 44.3862 -6.1280 9.0868 -45.7395 -0.3075 3.5651 -9.8562 -2.2918 -2.4431 8.7418 0.3127 -3.4873 -1.2124 2.0902 -1.6313 -6.0160 -0.8289 -5.9237 -16.3641 2.8445 -8.9585 40.4227 -0.1691 -2.9367 17.9969 0.0000 -0.0000 0.0000 -77.2125 -3.9027 51.0499 42.2705 -49.3590 -20.1456 -0.0000 0.0000 -35.3298 35.0524 15.3876 10.5455 -7.1250 0.0000 -0.0000 7.2658 48.4263 0.6171 0.0000 -0.0000 0.0000 77.3497 7.2786 36.7868 -24.5068 35.6956 -8.0004 0.0000 -0.0000 -11.2031 -44.0782 0.3541 -0.3429 7.1250 -0.0000 -0.0000 -13.6368 -29.3507 -5.3400
1.0871 19.2267 -35.0259 -0.8223 74.1657 4.6510 0.0000 0.0000 0.0000 -12.6178 -12.9703 -6.6637 2.7986 10.3617 30.1561 1.4983 -25.1091 -26.4074 0.1871 2.7859 7.6832 0.0000 0.0000 0.0000 23.3050 -2.8687 -26.6208 -5.7636 -14.1952 44.0253 -6.0580 9.1020 -45.4549 -0.2888 3.4558 -9.5504 -2.3509 -2.3773 8.5337 0.3093 -3.4038 -1.3379 2.1019 -1.5875 -6.0312 -0.9744 -5.8844 -15.9912 2.9069 -8.8504 40.3753 -0.0802 -2.9146 17.8820 -0.0000 -0.0000 0.0000 -77.2278 -2.9282 50.1830 41.5072 -48.9379 -19.5682 -0.0000 0.0000 -35.8201 34.9609 15.8246 10.7947 -7.1250 0.0000 -0.0000 7.1642 48.9246 0.6967 -0.0000 -0.0000 0.0000 77.9031 7.0025 36.9675 -24.4388 35.6249 -7.9607 0.0000 -0.0000 -11.1607 -43.9912 0.2863 -0.2764 7.1250 -0.0000 -0.0000 -13.5831 -29.4443 -5.2866
